HIERARCHY
ROOT Hips
{
	OFFSET	0.00	0.00	0.00
	CHANNELS 6 Xposition Yposition Zposition Zrotation Xrotation Yrotation
	JOINT LeftUpLeg
	{
		OFFSET	 0.126116	-0.014019	-0.065224
		CHANNELS 3 Zrotation Xrotation Yrotation
		JOINT LeftLeg
		{
			OFFSET	 0.000000	 0.000000	 0.569914
			CHANNELS 3 Zrotation Xrotation Yrotation
			JOINT LeftFoot
			{
				OFFSET	 0.000000	 0.000000	 0.544423
				CHANNELS 3 Zrotation Xrotation Yrotation
				JOINT LeftToeBase
				{
					OFFSET	 0.000000	 0.000000	 0.207117
					CHANNELS 3 Zrotation Xrotation Yrotation
					End Site
					{
						OFFSET	 0.000000	 0.000000	 0.207117
					}
				}
			}
		}
	}
	JOINT RightUpLeg
	{
		OFFSET	-0.124023	-0.008373	-0.065224
		CHANNELS 3 Zrotation Xrotation Yrotation
		JOINT RightLeg
		{
			OFFSET	 0.000000	 0.000000	 0.570047
			CHANNELS 3 Zrotation Xrotation Yrotation
			JOINT RightFoot
			{
				OFFSET	 0.000000	 0.000000	 0.544354
				CHANNELS 3 Zrotation Xrotation Yrotation
				JOINT RightToeBase
				{
					OFFSET	 0.000000	 0.000000	 0.207540
					CHANNELS 3 Zrotation Xrotation Yrotation
					End Site
					{
						OFFSET	 0.000000	 0.000000	 0.207540
					}
				}
			}
		}
	}
	JOINT Spine
	{
		OFFSET	 0.000184	-0.007763	 0.117403
		CHANNELS 3 Zrotation Xrotation Yrotation
		JOINT Spine1
		{
			OFFSET	 0.000000	 0.000000	 0.137269
			CHANNELS 3 Zrotation Xrotation Yrotation
			JOINT Spine2
			{
				OFFSET	 0.000000	 0.000000	 0.156879
				CHANNELS 3 Zrotation Xrotation Yrotation
				JOINT LeftShoulder
				{
					OFFSET	 0.080501	-0.002496	 0.160144
					CHANNELS 3 Zrotation Xrotation Yrotation
					JOINT LeftArm
					{
						OFFSET	 0.000000	 0.000000	 0.164363
						CHANNELS 3 Zrotation Xrotation Yrotation
						JOINT LeftForeArm
						{
							OFFSET	 0.000000	 0.000000	 0.364576
							CHANNELS 3 Zrotation Xrotation Yrotation
							JOINT LeftHand
							{
								OFFSET	 0.000000	 0.000000	 0.360812
								CHANNELS 3 Zrotation Xrotation Yrotation
								JOINT LeftHandIndex1
								{
									OFFSET	 0.000000	 0.000000	 0.086006
									CHANNELS 3 Zrotation Xrotation Yrotation
									JOINT LeftHandIndex2
									{
										OFFSET	 0.000000	 0.000000	 0.047237
										CHANNELS 3 Zrotation Xrotation Yrotation
										JOINT LeftHandIndex3
										{
											OFFSET	-0.004284	-0.000551	 0.038165
											CHANNELS 3 Zrotation Xrotation Yrotation
											End Site
											{
												OFFSET	-0.004284	-0.000551	 0.038165
											}
										}
									}
								}
							}
						}
					}
				}
				JOINT Neck
				{
					OFFSET	 0.000000	 0.000000	 0.176489
					CHANNELS 3 Zrotation Xrotation Yrotation
					JOINT Head
					{
						OFFSET	 0.000000	-0.001747	 0.077940
						CHANNELS 3 Zrotation Xrotation Yrotation
						End Site
						{
							OFFSET	 0.000000	-0.001747	 0.077940
						}
					}
				}
				JOINT RightShoulder
				{
					OFFSET	-0.080363	 0.000306	 0.159706
					CHANNELS 3 Zrotation Xrotation Yrotation
					JOINT RightArm
					{
						OFFSET	 0.000000	 0.000000	 0.164196
						CHANNELS 3 Zrotation Xrotation Yrotation
						JOINT RightForeArm
						{
							OFFSET	 0.000000	 0.000000	 0.365611
							CHANNELS 3 Zrotation Xrotation Yrotation
							JOINT RightHand
							{
								OFFSET	 0.000000	 0.000000	 0.360648
								CHANNELS 3 Zrotation Xrotation Yrotation
								JOINT RightHandIndex1
								{
									OFFSET	 0.000000	 0.000000	 0.069977
									CHANNELS 3 Zrotation Xrotation Yrotation
									JOINT RightHandIndex2
									{
										OFFSET	 0.000000	 0.000000	 0.052305
										CHANNELS 3 Zrotation Xrotation Yrotation
										JOINT RightHandIndex3
										{
											OFFSET	 0.009002	-0.000782	 0.042196
											CHANNELS 3 Zrotation Xrotation Yrotation
											End Site
											{
												OFFSET	 0.009002	-0.000782	 0.042196
											}
										}
									}
								}
							}
						}
					}
				}
			}
		}
	}
}
MOTION
Frames:    5
Frame Time: 0.03333334
-0.720338	-0.031837	 1.270624	 169.558600	-11.523270	-0.807459	-11.754810	 4.709053	-174.032500	-2.054835	-29.918340	-1.756552	-16.421870	 79.081460	 4.366799	-2.385833	 28.452760	 0.000004	-13.407400	 1.802987	-170.527300	 10.022450	-31.682790	 5.421527	-6.708711	 83.473400	 6.015515	 2.384659	 28.388700	-0.000001	 9.034277	 10.458550	-12.318570	 2.545218	 8.279716	-5.100878	 12.529660	-1.367426	 9.325885	-91.776150	 78.527380	 180.000000	-2.789969	 51.829360	-21.937610	-26.831970	 19.562730	-66.097740	-31.787950	-21.326450	-18.995250	-4.130354	 21.526190	 0.991307	-5.167926	 0.731697	 3.519349	-1.378229	 35.397820	-2.634230	 14.505520	 6.047263	-2.391017	 9.363163	-13.368970	-1.836478	 89.782090	 78.203900	 180.000000	-49.928880	 6.252680	 90.136340	 10.566020	 1.323127	 135.180000	 18.661330	 26.056870	 5.942163	 5.716295	 19.173350	-3.684826	 5.027458	 0.246833	-9.377971	-2.350882	 35.473990	 5.254307
-0.720777	-0.032070	 1.270401	 169.209400	-11.548540	-0.384689	-11.982860	 4.838621	-174.361200	-1.910995	-30.131930	-1.695515	-17.438320	 79.102920	 5.299699	-2.385833	 28.452760	 0.000004	-13.775670	 1.889722	-170.847500	 10.176340	-31.591610	 5.490174	-7.894831	 83.440100	 7.091740	 2.384659	 28.388700	-0.000001	 9.997828	 10.300050	-13.634160	 2.980955	 8.585621	-5.790870	 12.581300	-2.149217	 10.959970	-91.776220	 78.527420	-180.000000	-5.956691	 49.814790	-20.810110	-26.648750	 20.039280	-67.045890	-32.338500	-21.436340	-19.336930	-4.130354	 21.526190	 0.991307	-5.167926	 0.731697	 3.519349	-1.378229	 35.397820	-2.634230	 14.704270	 5.529695	-3.154805	 9.202867	-13.744890	-3.156274	 89.782090	 78.203870	-180.000000	-50.829940	 5.793291	 90.703900	 11.033480	 0.882034	 134.397200	 16.121480	 26.906190	 6.537148	 5.716295	 19.173350	-3.684826	 5.027458	 0.246833	-9.377971	-2.350882	 35.473990	 5.254307
-0.720998	-0.032331	 1.270160	 168.899600	-11.559160	-0.030461	-12.242980	 4.933274	-174.605700	-1.772747	-30.301620	-1.634222	-18.273170	 79.135890	 6.056786	-2.385833	 28.452760	 0.000004	-14.134400	 1.935413	-171.096800	 10.325750	-31.515800	 5.558453	-8.899824	 83.398680	 7.999294	 2.384659	 28.388700	-0.000001	 10.922700	 10.076740	-14.754660	 3.412357	 8.903048	-6.312846	 12.652840	-2.902557	 12.254910	-91.776270	 78.527420	-179.999900	-9.134056	 47.855420	-20.108280	-26.523510	 20.436990	-67.743390	-32.885910	-21.573350	-19.689240	-4.130354	 21.526190	 0.991307	-5.167926	 0.731697	 3.519349	-1.378229	 35.397820	-2.634230	 14.874870	 5.143094	-3.810794	 9.053445	-14.190620	-4.187132	 89.782080	 78.203850	-180.000000	-51.462570	 5.304544	 91.235950	 11.479540	 0.438038	 133.629100	 13.703510	 27.561130	 7.107395	 5.716295	 19.173350	-3.684826	 5.027458	 0.246833	-9.377971	-2.350882	 35.473990	 5.254307
-0.720622	-0.032534	 1.269704	 168.693600	-11.515590	 0.114013	-12.624540	 4.896671	-174.589300	-1.653188	-30.374900	-1.577210	-18.587920	 79.265370	 6.293802	-2.385833	 28.452760	 0.000004	-14.479530	 1.827722	-171.130400	 10.466410	-31.510250	 5.632966	-9.271552	 83.362330	 8.294516	 2.384659	 28.388700	-0.000001	 11.658200	 9.666592	-15.216300	 3.832799	 9.342539	-6.534177	 12.720090	-3.638940	 12.633840	-91.776190	 78.527420	-180.000000	-12.315380	 46.356780	-19.748980	-26.356930	 20.685440	-68.389390	-33.432160	-21.800790	-20.090540	-4.130354	 21.526190	 0.991307	-5.167926	 0.731697	 3.519349	-1.378229	 35.397820	-2.634230	 14.976240	 5.202186	-4.129683	 8.976394	-14.911190	-4.262833	 89.782110	 78.203870	 180.000000	-51.448470	 4.675252	 91.606160	 11.893220	 0.004141	 132.949700	 11.486550	 27.884300	 7.619354	 5.716295	 19.173350	-3.684826	 5.027458	 0.246833	-9.377971	-2.350882	 35.473990	 5.254307
-0.720117	-0.032861	 1.269238	 168.499300	-11.453480	 0.203854	-12.981070	 4.756284	-174.455700	-1.536808	-30.396070	-1.519189	-18.211610	 79.284980	 5.813065	-2.385833	 28.452760	 0.000004	-14.779070	 1.603284	-171.042400	 10.606390	-31.539640	 5.712764	-8.917669	 83.285690	 7.841007	 2.384659	 28.388700	-0.000001	 12.345240	 9.223055	-15.528010	 4.186716	 9.917313	-6.471529	 12.799780	-4.478564	 12.806370	-91.776130	 78.527380	 180.000000	-15.649050	 44.850090	-19.587910	-26.124230	 20.942590	-69.197700	-33.978030	-22.015870	-20.479420	-4.130354	 21.526190	 0.991307	-5.167926	 0.731697	 3.519349	-1.378229	 35.397820	-2.634230	 15.067500	 5.298647	-4.428860	 8.907793	-15.654150	-4.304748	 89.782120	 78.203900	 180.000000	-51.328440	 4.067689	 91.998620	 12.313380	-0.457514	 132.301200	 9.226804	 28.212720	 8.216229	 5.716295	 19.173350	-3.684826	 5.027458	 0.246833	-9.377971	-2.350882	 35.473990	 5.254307
